<svg width="113" height="100" viewBox="0 0 113 100" fill="none" xmlns="http://www.w3.org/2000/svg">
<rect width="113" height="100" rx="50" fill="#EBFDFA"/>
<g filter="url(#filter0_d_67_59)">
<path d="M46.6517 63.96C46.2784 63.96 45.8917 63.92 45.4917 63.84C43.4117 63.44 41.3317 62.88 39.2517 62.16C37.1984 61.44 35.1584 60.6533 33.1317 59.8C31.1317 58.9733 29.1451 58.16 27.1717 57.36C26.7717 57.76 26.2651 58.24 25.6517 58.8C25.0384 59.3867 24.3717 59.9467 23.6517 60.48C22.9317 61.0133 22.2117 61.4533 21.4917 61.8C20.7717 62.1733 20.0917 62.36 19.4517 62.36C18.7851 62.36 18.2784 62.1467 17.9317 61.72C17.5851 61.2933 17.3584 60.7733 17.2517 60.16C17.1451 59.5467 17.0917 58.9733 17.0917 58.44C17.0917 58.3067 17.0917 58.0533 17.0917 57.68C17.1184 57.3067 17.1584 56.96 17.2117 56.64C17.2651 56.32 17.3317 56.16 17.4117 56.16C17.4651 56.16 17.5051 56.2133 17.5317 56.32C17.5584 56.4267 17.5717 56.5333 17.5717 56.64C17.5984 56.8 17.6117 57 17.6117 57.24C17.6117 57.6667 17.6384 58.1733 17.6917 58.76C17.7717 59.3467 17.9451 59.8533 18.2117 60.28C18.4784 60.7333 18.9051 60.96 19.4917 60.96C19.9717 60.96 20.4917 60.8 21.0517 60.48C21.6384 60.16 22.2251 59.7733 22.8117 59.32C23.3984 58.8667 23.9317 58.4 24.4117 57.92C24.8917 57.44 25.2917 57.04 25.6117 56.72C25.1051 56.5067 24.4384 56.24 23.6117 55.92C22.7851 55.6 21.9584 55.3067 21.1317 55.04C20.3317 54.7733 19.6784 54.64 19.1717 54.64C18.2651 54.64 17.5451 54.9333 17.0117 55.52C16.5051 56.1067 16.2517 56.84 16.2517 57.72C16.2517 57.9867 16.2917 58.24 16.3717 58.48C16.4784 58.72 16.5317 58.9733 16.5317 59.24C16.5317 59.2667 16.5184 59.32 16.4917 59.4C16.4651 59.48 16.4251 59.52 16.3717 59.52C16.1851 59.52 16.0517 59.32 15.9717 58.92C15.8917 58.5467 15.8384 58.1467 15.8117 57.72C15.7851 57.2667 15.7717 56.9733 15.7717 56.84C15.7717 55.5867 16.0517 54.5733 16.6117 53.8C17.1984 53.0267 18.1584 52.64 19.4917 52.64C20.3184 52.64 21.1717 52.7733 22.0517 53.04C22.9584 53.3067 23.8517 53.6267 24.7317 54C25.6117 54.3733 26.4117 54.7333 27.1317 55.08C28.3051 53.7733 29.4517 52.48 30.5717 51.2C31.7184 49.92 32.9051 48.6667 34.1317 47.44C33.5451 47.4667 32.8384 47.5067 32.0117 47.56C31.1851 47.6133 30.3317 47.7067 29.4517 47.84C28.5984 47.9733 27.7851 48.1733 27.0117 48.44C26.2651 48.68 25.6651 49 25.2117 49.4C25.0517 49.5333 24.9184 49.68 24.8117 49.84C24.7317 49.9733 24.6517 50.1333 24.5717 50.32C24.5451 50.4 24.4917 50.4933 24.4117 50.6C24.3317 50.7067 24.2384 50.76 24.1317 50.76C24.0251 50.76 23.9717 50.7067 23.9717 50.6C23.9717 50.5467 23.9717 50.4933 23.9717 50.44C23.9984 50.3867 24.0251 50.3333 24.0517 50.28C24.3984 49.4 25.0251 48.7067 25.9317 48.2C26.8384 47.6667 27.8651 47.2667 29.0117 47C30.1851 46.7333 31.3317 46.56 32.4517 46.48C33.5717 46.3733 34.5317 46.3067 35.3317 46.28C37.0651 44.5733 38.8384 42.92 40.6517 41.32C42.4651 39.6933 44.3451 38.1733 46.2917 36.76H45.9317C44.1184 36.76 42.3051 36.6 40.4917 36.28C38.7051 35.96 36.9184 35.6667 35.1317 35.4C34.0917 35.24 33.0384 35.16 31.9717 35.16C31.3851 35.16 30.6784 35.2267 29.8517 35.36C29.0251 35.4667 28.2117 35.68 27.4117 36C26.6384 36.2933 25.9851 36.7067 25.4517 37.24C24.9184 37.7467 24.6517 38.4 24.6517 39.2C24.6517 39.92 24.8917 40.5467 25.3717 41.08C25.8784 41.5867 26.4651 42.0133 27.1317 42.36C27.8251 42.68 28.4651 42.92 29.0517 43.08C29.3984 43.1867 29.7451 43.2667 30.0917 43.32C30.4384 43.3733 30.7851 43.4267 31.1317 43.48C31.1851 43.5067 31.2517 43.5333 31.3317 43.56C31.4117 43.5867 31.4517 43.64 31.4517 43.72C31.4517 43.8 31.3851 43.8533 31.2517 43.88C31.1451 43.88 31.0651 43.88 31.0117 43.88H30.6917C30.1051 43.7733 29.3451 43.6133 28.4117 43.4C27.4784 43.16 26.5451 42.84 25.6117 42.44C24.6784 42.04 23.8917 41.5467 23.2517 40.96C22.6117 40.3733 22.2917 39.6667 22.2917 38.84C22.2917 38.4667 22.3584 38.12 22.4917 37.8C22.6517 37.48 22.8517 37.1867 23.0917 36.92C23.7051 36.2267 24.4917 35.7067 25.4517 35.36C26.4117 34.9867 27.4117 34.7333 28.4517 34.6C29.4917 34.44 30.4384 34.36 31.2917 34.36C31.9851 34.36 32.6651 34.3867 33.3317 34.44C33.9984 34.4933 34.6651 34.5733 35.3317 34.68C37.2251 34.9733 39.1184 35.2667 41.0117 35.56C42.9317 35.8267 44.8384 35.96 46.7317 35.96H47.0917C47.6517 35.5867 48.1717 35.2267 48.6517 34.88C49.1317 34.5333 49.7317 34.36 50.4517 34.36C50.5851 34.36 50.7851 34.3867 51.0517 34.44C51.3451 34.4933 51.4917 34.6267 51.4917 34.84C51.4917 35.1067 51.3317 35.36 51.0117 35.6C50.7184 35.8133 50.3451 36 49.8917 36.16C49.4384 36.2933 48.9984 36.4133 48.5717 36.52C48.1717 36.6 47.8651 36.6533 47.6517 36.68C45.8651 38.12 44.1317 39.6667 42.4517 41.32C40.7984 42.9733 39.1584 44.6267 37.5317 46.28C38.5984 46.3067 39.7184 46.36 40.8917 46.44C42.0917 46.4933 43.2117 46.6533 44.2517 46.92C44.2784 46.92 44.3717 46.9467 44.5317 47C44.6917 47.0267 44.7717 47.08 44.7717 47.16C44.7717 47.2667 44.5851 47.3733 44.2117 47.48C43.8651 47.56 43.6384 47.6 43.5317 47.6C42.3584 47.6 41.1717 47.5733 39.9717 47.52C38.7717 47.4667 37.5851 47.44 36.4117 47.44C35.1051 48.8 33.7984 50.1867 32.4917 51.6C31.2117 52.9867 29.9317 54.3867 28.6517 55.8C29.7717 56.36 31.0784 57.0267 32.5717 57.8C34.0651 58.5467 35.6117 59.28 37.2117 60C38.8384 60.7467 40.4251 61.36 41.9717 61.84C43.5451 62.32 44.9451 62.56 46.1717 62.56C46.6784 62.56 47.0784 62.4533 47.3717 62.24C47.6917 62.0267 47.8517 61.6533 47.8517 61.12C47.8517 60.7733 47.7851 60.4133 47.6517 60.04C47.5451 59.6933 47.4917 59.44 47.4917 59.28C47.4917 59.12 47.5584 59.04 47.6917 59.04C47.8784 59.04 48.0517 59.2533 48.2117 59.68C48.3984 60.1333 48.5451 60.6 48.6517 61.08C48.7851 61.56 48.8517 61.8933 48.8517 62.08C48.8517 62.7467 48.6384 63.2267 48.2117 63.52C47.7851 63.8133 47.2651 63.96 46.6517 63.96ZM60.257 59.6C59.0837 59.6 57.8704 59.4933 56.617 59.28C55.3904 59.0667 54.2437 58.6933 53.177 58.16C52.137 57.6533 51.2837 56.9333 50.617 56C49.977 55.0667 49.657 53.88 49.657 52.44C49.657 51.08 49.937 49.7333 50.497 48.4C51.057 47.0667 51.7904 45.8 52.697 44.6C53.6037 43.3733 54.5904 42.2533 55.657 41.24C56.7504 40.2267 57.817 39.3467 58.857 38.6C59.817 37.9067 60.817 37.28 61.857 36.72C62.9237 36.16 64.0037 35.6667 65.097 35.24C66.4837 34.7067 67.8837 34.2933 69.297 34C70.7104 33.68 72.1504 33.4667 73.617 33.36C73.6704 33.3333 73.737 33.32 73.817 33.32C73.897 33.32 73.9637 33.32 74.017 33.32C74.5237 33.32 75.1104 33.3867 75.777 33.52C76.4437 33.6267 77.0704 33.8267 77.657 34.12C78.2704 34.3867 78.7237 34.7467 79.017 35.2C79.177 34.9867 79.3904 34.6533 79.657 34.2C79.9504 33.7467 80.097 33.4133 80.097 33.2C80.097 33.0667 80.1504 32.92 80.257 32.76C80.3637 32.6 80.4837 32.52 80.617 32.52C80.7504 32.52 80.8304 32.5867 80.857 32.72C80.8837 32.8267 80.897 32.92 80.897 33C80.897 33.16 80.8037 33.4533 80.617 33.88C80.457 34.3067 80.2704 34.7333 80.057 35.16C79.8437 35.56 79.697 35.8533 79.617 36.04C79.7504 36.2267 79.897 36.5067 80.057 36.88C80.217 37.2533 80.297 37.5467 80.297 37.76C80.297 37.92 80.257 38.1333 80.177 38.4C80.097 38.64 79.977 38.8 79.817 38.88C79.817 38.88 79.737 38.72 79.577 38.4C79.417 38.0533 79.3104 37.84 79.257 37.76C78.9904 38.2933 78.6837 38.9467 78.337 39.72C78.017 40.4933 77.6437 41.1067 77.217 41.56C77.1104 41.6667 76.977 41.7333 76.817 41.76C76.6837 41.7867 76.5504 41.8 76.417 41.8C76.337 41.8 76.1504 41.7867 75.857 41.76C75.5904 41.7067 75.3237 41.64 75.057 41.56C74.817 41.48 74.697 41.4 74.697 41.32C74.697 41.1067 74.8437 40.7867 75.137 40.36C75.4304 39.9333 75.7904 39.4667 76.217 38.96C76.6437 38.4533 77.0437 37.9733 77.417 37.52C77.7904 37.04 78.057 36.68 78.217 36.44C77.737 35.5867 77.1104 35 76.337 34.68C75.5637 34.3333 74.7104 34.16 73.777 34.16C73.697 34.16 73.617 34.16 73.537 34.16C73.457 34.16 73.377 34.1733 73.297 34.2C70.7104 34.36 68.2704 34.9467 65.977 35.96C65.017 36.3867 64.0837 36.88 63.177 37.44C62.297 37.9733 61.4304 38.56 60.577 39.2C59.6437 39.9467 58.697 40.8267 57.737 41.84C56.777 42.8267 55.897 43.9067 55.097 45.08C54.3237 46.2533 53.697 47.48 53.217 48.76C52.737 50.0133 52.497 51.2667 52.497 52.52C52.497 54.0933 52.8837 55.3467 53.657 56.28C54.457 57.2133 55.4704 57.88 56.697 58.28C57.9504 58.68 59.257 58.88 60.617 58.88C62.6437 58.88 64.657 58.5733 66.657 57.96C68.6837 57.32 70.6304 56.4933 72.497 55.48C74.3904 54.44 76.1237 53.3333 77.697 52.16C77.7504 52.1067 77.817 52.0533 77.897 52C78.0037 51.9467 78.097 51.92 78.177 51.92C78.257 51.92 78.297 51.96 78.297 52.04C78.297 52.3067 78.1637 52.5467 77.897 52.76C77.5237 53.1067 77.1104 53.44 76.657 53.76C76.2304 54.0533 75.7904 54.3467 75.337 54.64C73.0704 56.1867 70.6837 57.4 68.177 58.28C65.6704 59.16 63.0304 59.6 60.257 59.6ZM84.4827 58.88C84.456 58.88 84.4427 58.8667 84.4427 58.84C84.4427 58.7067 84.536 58.4133 84.7227 57.96C84.936 57.5067 85.0693 57.2267 85.1227 57.12C86.1093 54.9067 87.056 52.68 87.9627 50.44C88.8693 48.1733 89.8427 45.9467 90.8827 43.76C91.9493 41.5467 93.1627 39.44 94.5227 37.44C94.4693 37.2267 94.4427 37.04 94.4427 36.88C94.4427 36.7467 94.456 36.64 94.4827 36.56L95.9627 34.28C96.1227 34.12 96.3893 34 96.7627 33.92C97.1627 33.84 97.4693 33.8 97.6827 33.8C97.7893 33.8 97.9893 33.8267 98.2827 33.88C98.576 33.9067 98.7227 34.0133 98.7227 34.2C98.7227 34.28 98.7093 34.32 98.6827 34.32C98.256 34.9067 97.8293 35.5067 97.4027 36.12C96.976 36.7333 96.5493 37.3467 96.1227 37.96C92.5227 43.3467 89.6427 49.0533 87.4827 55.08C88.6827 53.9333 89.816 52.72 90.8827 51.44C91.9493 50.16 93.0693 48.9467 94.2427 47.8C94.296 47.7467 94.3493 47.72 94.4027 47.72C94.4827 47.6933 94.5493 47.6667 94.6027 47.64C94.736 47.56 94.896 47.4533 95.0827 47.32C95.296 47.1867 95.4693 47.12 95.6027 47.12C95.6027 47.12 95.6027 47.1333 95.6027 47.16H95.6427C95.6693 47.1333 95.736 47.12 95.8427 47.12C95.976 47.12 96.056 47.2 96.0827 47.36C96.1093 47.52 96.1227 47.6533 96.1227 47.76C96.1227 48.0267 96.0293 48.44 95.8427 49C95.6827 49.56 95.4827 49.9067 95.2427 50.04C94.976 50.9733 94.7227 51.8267 94.4827 52.6C94.2693 53.3467 94.1627 54.24 94.1627 55.28C94.1627 55.5467 94.2027 55.8933 94.2827 56.32C94.3627 56.7467 94.6027 56.96 95.0027 56.96C95.376 56.96 95.7627 56.84 96.1627 56.6C96.5627 56.36 96.9493 56.08 97.3227 55.76C97.696 55.4133 98.016 55.12 98.2827 54.88C98.5493 54.64 98.7227 54.52 98.8027 54.52C98.856 54.52 98.8827 54.56 98.8827 54.64C98.8827 54.72 98.856 54.8133 98.8027 54.92C98.7493 55.0267 98.696 55.1067 98.6427 55.16C98.216 55.8267 97.6027 56.4667 96.8027 57.08C96.0027 57.6933 95.1893 58 94.3627 58C93.5627 58 93.0293 57.7333 92.7627 57.2C92.496 56.64 92.3627 56.0267 92.3627 55.36C92.3627 54.3733 92.5093 53.3333 92.8027 52.24C93.1227 51.1467 93.456 50.1467 93.8027 49.24C93.6427 49.4 93.3227 49.7467 92.8427 50.28C92.3627 50.8133 91.8027 51.4267 91.1627 52.12C90.5227 52.8133 89.896 53.5067 89.2827 54.2C88.6693 54.8667 88.1493 55.44 87.7227 55.92C87.3227 56.4 87.1093 56.6933 87.0827 56.8C87.056 56.96 87.0427 57.1333 87.0427 57.32C87.0427 57.48 86.9893 57.64 86.8827 57.8C86.8293 57.88 86.6293 58 86.2827 58.16C85.936 58.3467 85.576 58.5067 85.2027 58.64C84.856 58.8 84.616 58.88 84.4827 58.88Z" fill="#6B1519"/>
</g>
<defs>
<filter id="filter0_d_67_59" x="11.7717" y="32.52" width="91.111" height="39.44" filterUnits="userSpaceOnUse" color-interpolation-filters="sRGB">
<feFlood flood-opacity="0" result="BackgroundImageFix"/>
<feColorMatrix in="SourceAlpha" type="matrix" values="0 0 0 0 0 0 0 0 0 0 0 0 0 0 0 0 0 0 127 0" result="hardAlpha"/>
<feOffset dy="4"/>
<feGaussianBlur stdDeviation="2"/>
<feComposite in2="hardAlpha" operator="out"/>
<feColorMatrix type="matrix" values="0 0 0 0 0.419608 0 0 0 0 0.0823529 0 0 0 0 0.0980392 0 0 0 0.25 0"/>
<feBlend mode="normal" in2="BackgroundImageFix" result="effect1_dropShadow_67_59"/>
<feBlend mode="normal" in="SourceGraphic" in2="effect1_dropShadow_67_59" result="shape"/>
</filter>
</defs>
</svg>
